<svg xmlns="http://www.w3.org/2000/svg" version="1.1" xmlns:xlink="http://www.w3.org/1999/xlink" width="512" height="512" x="0" y="0" viewBox="0 0 512 512" style="enable-background:new 0 0 512 512" xml:space="preserve" class=""><g><circle cx="96.4" cy="66.7" r="66.7" fill="#000000" opacity="1" data-original="#000000" class=""></circle><circle cx="256" cy="182.8" r="49.3" fill="#000000" opacity="1" data-original="#000000" class=""></circle><path d="M128.2 149.2H64.7c-33.1 0-60 26.9-60 60V317c0 14.9 10.8 27.2 25 29.6V482c0 16.6 13.4 30 30 30h73.5c16.6 0 30-13.4 30-30V346.6c1.7-.3 3.4-.7 5-1.3v-57.2c0-18.3 7.7-34.8 20-46.6v-32.4c0-33.1-26.9-59.9-60-59.9zM279.5 243.8h-47c-24.5 0-44.4 19.9-44.4 44.4V368c0 11 8 20.1 18.5 21.9V490c0 12.2 9.9 22.2 22.2 22.2h54.3c12.2 0 22.2-9.9 22.2-22.2V389.7c10.5-1.8 18.5-10.9 18.5-21.9V288c0-24.4-19.8-44.2-44.3-44.2zM447.4 149.2h-63.5c-33.1 0-60 26.9-60 60v32.4c12.3 11.7 20 28.2 20 46.6v57.2c1.6.6 3.3 1 5 1.3V482c0 16.6 13.4 30 30 30h73.5c16.6 0 30-13.4 30-30V346.6c14.2-2.4 25-14.7 25-29.6V209.2c-.1-33.2-26.9-60-60-60z" fill="#000000" opacity="1" data-original="#000000" class=""></path><circle cx="415.6" cy="66.7" r="66.7" fill="#000000" opacity="1" data-original="#000000" class=""></circle></g></svg>