<svg xmlns="http://www.w3.org/2000/svg" version="1.1" xmlns:xlink="http://www.w3.org/1999/xlink" width="512" height="512" x="0" y="0" viewBox="0 0 32 32" style="enable-background:new 0 0 512 512" xml:space="preserve" class=""><g><path d="M24.517 9a.2.2 0 0 0 .142-.341L19.34 3.34a.2.2 0 0 0-.341.142V8a1 1 0 0 0 1 1z" fill="#000000" opacity="1" data-original="#000000" class=""></path><path d="M25 11h-5a3 3 0 0 1-3-3V3.003a.997.997 0 0 0-.996-1C13.662 2 8 2 8 2a2 2 0 0 0-2 2v24a2 2 0 0 0 2 2h16a2 2 0 0 0 2-2V12a1 1 0 0 0-1-1zm-3.793 14.207a1 1 0 0 1-1.414 0l-1.54-1.54a5.014 5.014 0 1 1 1.414-1.414l1.54 1.54a1 1 0 0 1 0 1.414z" fill="#000000" opacity="1" data-original="#000000" class=""></path><circle cx="15.5" cy="19.5" r="3" fill="#000000" opacity="1" data-original="#000000" class=""></circle></g></svg>