<svg xmlns="http://www.w3.org/2000/svg" version="1.1" xmlns:xlink="http://www.w3.org/1999/xlink" width="512" height="512" x="0" y="0" viewBox="0 0 512 512" style="enable-background:new 0 0 512 512" xml:space="preserve" class=""><g><path fill-rule="evenodd" d="M399.195 155.17v107.426c0 6.458-5.282 11.739-11.739 11.739h-58.21v-71.267c0-11.901-9.707-21.609-21.608-21.609h-19.145c-11.901 0-21.608 9.707-21.608 21.609v71.267h-58.21c-6.456 0-11.739-5.282-11.739-11.739V155.17a36.812 36.812 0 0 0 2.348-1.573l98.782-71.769 98.782 71.769a37.51 37.51 0 0 0 2.347 1.573zM60.405 332.144l73.62 130.081c3.56 6.29 1.326 14.348-4.964 17.908l-25.041 14.172c-6.29 3.56-14.348 1.326-17.908-4.964L12.492 359.26c-3.559-6.289-1.326-14.348 4.964-17.908l25.041-14.172c6.29-3.559 14.348-1.325 17.908 4.964zm85.69-22.665-60.346 34.962 49.088 86.735c3.871-2.235 8.545-6.082 13.066-4.874l128.729 34.493c16.402 4.395 31.948 2.403 46.451-6.525l169.599-104.401c17.513-10.783 11.879-63.92-53.723-25.713l-89.92 52.111c-18.648 10.859-41.223 11.921-61.834 6.215-21.902-4.407-43.117-11.154-64.662-16.927a7.99 7.99 0 1 1 4.125-15.437c21.217 5.685 42.137 12.371 63.696 16.727 11.158 1.364 20.484-2.085 23.59-13.679 2.839-10.596-3.834-20.608-13.858-24.058-29.328-5.362-57.825-15.664-80.231-23.765-32.674-11.812-41.571-14.519-73.77 4.136zM42.052 349.043c-4.886.714-8.267 5.254-7.553 10.14s5.254 8.267 10.139 7.553a8.94 8.94 0 0 0 7.553-10.139 8.94 8.94 0 0 0-10.139-7.554zm147.828-208.39 108.186-78.602 108.186 78.602c9.21 6.674 22.087 4.618 28.761-4.592s4.618-22.087-4.592-28.761L377.52 68.866V30.562c0-2.754-2.246-5-5-5h-16.493a5.01 5.01 0 0 0-5 5v19.056l-40.52-29.44c-7.037-5.336-17.004-5.71-24.525-.259L165.712 107.3c-9.21 6.674-11.266 19.551-4.592 28.761 6.673 9.21 19.55 11.266 28.76 4.592z" clip-rule="evenodd" fill="#000000" opacity="1" data-original="#000000" class=""></path></g></svg>