<svg class="img-fluid" id="outputsvg" xmlns="http://www.w3.org/2000/svg" style="transform: none; transform-origin: 50% 50%; cursor: move; max-height: none;" width="512" height="512" viewBox="0 0 5120 5120"><g id="l2YzVf6HsP18rsgkpZloNY1" fill="rgb(0,0,0)" style="transform: none;"><g><path id="pd6p94SES" d="M432 4502 c-56 -158 -102 -291 -102 -296 0 -4 21 -66 46 -136 l46 -128 102 -47 c55 -26 102 -49 104 -50 1 -1 -19 -49 -45 -105 -32 -70 -44 -105 -36 -107 7 -3 53 -24 102 -48 l90 -44 -44 -95 c-25 -53 -45 -99 -45 -104 0 -4 45 -29 100 -54 l99 -46 -49 -104 -49 -105 69 -189 c39 -104 70 -193 70 -198 0 -5 -40 -51 -90 -102 -223 -231 -340 -515 -340 -828 0 -602 441 -1105 1038 -1186 111 -15 306 -8 401 15 l65 16 55 -54 c143 -138 299 -218 485 -248 102 -16 270 -6 366 21 272 78 499 289 591 550 l27 75 528 202 c291 111 554 211 586 222 l56 21 -55 143 c-30 78 -55 143 -57 144 -2 2 -1233 -465 -1283 -487 -21 -9 -32 3 -145 152 l-122 163 -22 -85 c-24 -94 -52 -176 -79 -232 l-18 -37 98 -131 c53 -71 110 -139 125 -150 39 -28 97 -34 149 -16 24 9 45 16 48 16 2 0 -11 -28 -28 -62 -47 -90 -192 -233 -284 -280 -127 -66 -202 -83 -355 -83 -121 1 -143 4 -214 28 -44 16 -106 44 -139 63 -67 39 -147 102 -147 115 0 5 24 20 54 34 95 45 204 123 295 210 623 601 431 1623 -370 1961 -109 46 -218 72 -356 87 l-116 12 -243 670 c-134 369 -262 720 -285 782 l-41 112 -231 134 c-128 74 -248 144 -267 155 l-35 21 -103 -287z m1510 -3156 c25 -7 61 -25 80 -40 39 -29 82 -103 92 -157 9 -52 -11 -132 -45 -179 -29 -40 -82 -80 -106 -80 -14 0 -29 46 -42 130 -8 50 -16 70 -36 88 -35 30 -61 28 -96 -8 -32 -32 -33 -38 -7 -152 5 -26 8 -52 6 -58 -2 -7 -24 2 -53 22 -67 45 -105 117 -105 199 0 70 15 112 60 163 67 76 156 101 252 72z"></path><path id="pbHWGXtM1" d="M2955 3609 c-3 -8 -67 -232 -144 -498 l-138 -485 67 -88 c158 -209 255 -466 275 -733 l7 -90 136 -180 c74 -99 137 -182 138 -184 2 -2 255 92 561 209 l558 212 188 660 c104 363 187 661 185 663 -2 2 -120 37 -263 78 l-260 74 -153 -536 c-85 -295 -155 -537 -156 -538 -2 -2 -770 218 -774 222 -2 1 65 240 148 530 83 291 149 533 147 539 -3 6 -114 42 -248 80 -134 38 -250 71 -256 74 -7 2 -15 -2 -18 -9z"></path></g></g></svg>