<svg xmlns="http://www.w3.org/2000/svg" version="1.1" xmlns:xlink="http://www.w3.org/1999/xlink" width="512" height="512" x="0" y="0" viewBox="0 0 512 512" style="enable-background:new 0 0 512 512" xml:space="preserve" class=""><g><path d="M376.347 379.07c-21.623 21.633-51.014 34.662-81.503 36.34-7.364 5.468-25.603 16.257-54.91 16.257-12.434 0-21.363-3.937-26.539-11.7-4.717-7.075-4.498-14.476-4.53-20.414-8.718-.33-19.583 8.647-22.591 11.654-5.857 5.858-15.355 5.858-21.213 0s-5.858-15.355 0-21.213c2.094-2.094 21.085-20.46 42.74-20.46 12.434 0 21.363 3.937 26.539 11.7 4.717 7.075 4.498 14.476 4.529 20.415 12.539.455 26.03-3.079 34.455-7.896 1.653-30.729 14.403-59.391 36.335-81.331l73.809-73.824V141.4c0-8.284-6.716-15-15-15h-96.4c-8.284 0-15-6.716-15-15V15c0-8.284-6.716-15-15-15H15C6.716 0 0 6.716 0 15v482c0 8.284 6.716 15 15 15h353.467c8.284 0 15-6.716 15-15V371.948l-7.12 7.122zM79.267 160.667h64.267c19.881.738 19.866 29.269 0 30H79.267c-19.881-.738-19.866-29.27 0-30zm0 64.266H304.2c19.881.738 19.866 29.269 0 30H79.267c-19.881-.738-19.866-29.269 0-30zm-15 79.267c0-8.284 6.716-15 15-15h160.667c19.881.738 19.866 29.269 0 30H79.267c-8.285 0-15-6.716-15-15z" fill="#000000" opacity="1" data-original="#000000" class=""></path><path d="M287.066 96.4h81.4c2.282 0 4.524.174 6.716.503l-88.62-88.619c.329 2.192.503 4.434.503 6.716v81.4zM505.559 183.166c-4.085-4.088-9.746-6.433-15.531-6.433a5.45 5.45 0 0 0-3.855 1.598L330.869 333.636c-13.941 13.947-23.003 31.476-26.319 50.508 19.011-3.385 36.855-12.553 50.577-26.28l155.276-155.315a5.457 5.457 0 0 0 1.597-3.857c0-5.772-2.348-11.431-6.441-15.526z" fill="#000000" opacity="1" data-original="#000000" class=""></path></g></svg>