<svg xmlns="http://www.w3.org/2000/svg" version="1.1" xmlns:xlink="http://www.w3.org/1999/xlink" width="1000" height="1000"><svg xmlns="http://www.w3.org/2000/svg" version="1.1" xmlns:xlink="http://www.w3.org/1999/xlink" width="1000" height="1000"><g clip-path="url(#SvgjsClipPath1109)"><rect width="1000" height="1000" fill="#1a3a5f"></rect><g transform="matrix(2.1660649819494586,0,0,2.1660649819494586,93.8628158844765,49.99999999999994)"><svg xmlns="http://www.w3.org/2000/svg" version="1.1" xmlns:xlink="http://www.w3.org/1999/xlink" width="375" height="415.5"><svg version="1.1" id="SvgjsSvg1003" xmlns="http://www.w3.org/2000/svg" xmlns:xlink="http://www.w3.org/1999/xlink" x="0px" y="0px" viewBox="0 0 375 415.5" enable-background="new 0 0 375 415.5" xml:space="preserve">
<g>
	<rect x="99" y="45" fill="#FDC904" width="177" height="14.4"></rect>
	<rect x="115.9" y="75.1" fill="#FDC904" width="141.7" height="14.1"></rect>
	<path fill="#FDC904" d="M67.9,354c1-1.2,3.7-0.8,8.1-0.6c0.9,0,2-0.1,3.1-0.3c1.7-0.4,3.2-1.1,3.6-1.3c1.5-0.8,0,0,2.2-1.3
		c5.1-3,18.6-12.3,21.6-14.6C118.5,327.4,139,310,139,310c8.3-7.7,21.3-19.6,38.2-34.7c0,0,19.5-17.5,40-39.8s30.8-32.7,54.5-63.7
		s19.2-30,20-36.5c0.4-3.6,0.5-4.3,8.6-8.4c8.1-4.2,9.5-0.7,9.5-0.7s1.3,1.7,1,4.4c-0.3,2.7-0.8,4.1-1.8,6.3
		c-1.1,2.2-4.7,10.1-8.3,15.5c-3.7,5.4-12.3,18.6-25,34.7s-22.8,29.1-34.7,41.4c-11.9,12.3-16,16.7-20.3,21
		c-4.3,4.3-14.2,15.2-27.1,27c-12.9,11.8-43.6,39-43.6,39c-22.8,19.3-25.5,21.3-27.7,23c-2.2,1.7-9.3,7.7-17.7,13.7
		S89.4,363,81.7,367c-0.6,0.3-4.9,2.7-10.9,3.4c-1.2,0.1-3.9,0-4.7-0.5C61.8,367.6,65.9,356.4,67.9,354z"></path>
	<polygon fill="#FDC904" points="139.2,134.5 157.2,134.5 157.6,294.4 139,310.4 	"></polygon>
	<polygon fill="#FDC904" points="177.2,275.7 177.2,134.5 195.2,134.5 195.2,258.6 	"></polygon>
	<polygon fill="#FDC904" points="217,134.5 235,134.5 235,216.5 217.2,235.9 	"></polygon>
	<rect x="133.5" y="103.7" fill="#FDC904" width="108.8" height="14.8"></rect>
</g>
</svg></svg></g></g><defs><clipPath id="SvgjsClipPath1002"><rect width="1000" height="1000" x="0" y="0" rx="0" ry="0"></rect></clipPath></defs></svg><style>@media (prefers-color-scheme: light) { :root { filter: none; } }
@media (prefers-color-scheme: dark) { :root { filter: none; } }
</style></svg>