<svg xmlns="http://www.w3.org/2000/svg" version="1.1" xmlns:xlink="http://www.w3.org/1999/xlink" width="1784" height="1782"><svg class="img-fluid" id="SvgjsSvg1047" xmlns="http://www.w3.org/2000/svg" style="transform: matrix(1, 0, 0, 1, 0, 0); transform-origin: 50% 50%; cursor: move; transition: transform 200ms ease-in-out;" width="1784" height="1782" viewBox="0 0 17840 17820"><g id="SvgjsG1046" fill="rgba(255, 255, 255, 0)" style="transform: none;"><g style="transform: none;"><path id="SvgjsPath1045" d="M0 8910 l0 -8910 8920 0 8920 0 0 8910 0 8910 -8920 0 -8920 0 0 -8910z m3361 8020 c119 -45 217 -92 386 -186 216 -119 274 -155 655 -401 400 -259 1004 -714 1728 -1303 304 -247 340 -277 517 -430 99 -85 244 -209 322 -275 320 -269 919 -794 1186 -1041 55 -50 179 -163 275 -250 469 -425 1528 -1439 1680 -1609 29 -33 174 -184 321 -335 274 -282 307 -318 328 -357 6 -13 20 -23 31 -23 11 0 37 -24 66 -62 27 -35 134 -151 239 -258 222 -227 278 -287 333 -355 22 -27 121 -135 221 -240 100 -104 181 -195 181 -201 0 -6 68 -82 150 -168 83 -86 150 -160 150 -166 0 -5 31 -42 68 -82 38 -41 86 -98 109 -128 22 -30 74 -93 116 -138 43 -46 77 -88 77 -93 0 -6 34 -48 75 -96 41 -47 75 -89 75 -94 0 -4 27 -38 60 -76 33 -37 60 -73 60 -79 0 -6 27 -42 60 -79 33 -37 60 -71 60 -75 0 -4 25 -38 55 -75 30 -36 55 -71 55 -76 0 -5 22 -33 50 -64 27 -30 58 -72 70 -94 11 -22 25 -43 31 -46 13 -9 138 -168 243 -312 44 -59 96 -130 116 -158 73 -100 186 -261 217 -310 18 -28 46 -64 63 -80 16 -16 30 -34 30 -41 0 -6 25 -42 55 -80 30 -38 55 -77 55 -86 0 -10 13 -27 30 -39 16 -12 36 -39 44 -59 8 -20 35 -57 59 -83 25 -25 49 -56 52 -69 4 -13 28 -44 52 -71 24 -26 51 -63 59 -82 8 -19 19 -35 24 -35 5 0 14 -17 19 -38 6 -20 31 -65 56 -100 170 -234 400 -694 456 -911 40 -156 16 -272 -62 -298 -59 -19 -157 -1 -257 47 -48 23 -109 48 -135 56 -28 7 -98 46 -162 89 -153 102 -155 105 -220 480 -10 55 -29 134 -42 175 -31 94 -145 333 -221 459 -175 295 -630 924 -942 1301 -105 127 -327 400 -581 715 -105 131 -223 273 -393 475 -39 47 -151 177 -249 290 -317 364 -283 330 -326 330 -37 0 -39 -2 -45 -37 -3 -21 -9 -923 -13 -2005 l-6 -1968 -379 0 -378 0 0 2465 1 2466 -95 97 c-52 53 -115 124 -142 157 -26 33 -212 225 -413 428 -346 347 -368 367 -402 367 l-36 0 -6 -157 c-4 -87 -7 -1433 -7 -2990 l0 -2833 -415 0 -415 0 0 3411 0 3411 -87 92 c-49 50 -108 106 -131 123 -54 39 -249 221 -526 490 -183 179 -212 203 -240 203 l-33 0 -6 -902 c-4 -496 -7 -2235 -7 -3865 l0 -2963 -400 0 -400 0 0 4249 0 4250 -42 40 c-24 22 -61 52 -83 67 -22 14 -73 57 -115 93 -41 37 -87 75 -101 84 -15 9 -61 47 -102 86 -42 38 -95 82 -118 96 -23 15 -80 63 -126 106 -46 43 -90 79 -97 79 -8 0 -49 34 -93 75 -43 41 -82 75 -86 75 -12 0 -49 30 -134 107 -40 37 -88 76 -107 87 -56 34 -218 161 -256 201 -19 20 -49 42 -66 50 -17 7 -57 36 -88 64 -31 28 -60 51 -65 51 -6 0 -31 18 -56 40 -25 22 -52 40 -58 40 -7 0 -42 24 -78 53 -36 28 -79 60 -95 70 -42 25 -94 62 -130 91 -18 15 -47 32 -66 40 -18 8 -42 24 -53 36 -11 12 -40 33 -65 47 -78 42 -135 77 -148 90 -7 7 -22 13 -32 13 -10 0 -25 6 -32 13 -42 42 -245 137 -358 167 -24 7 -53 18 -64 26 -27 19 -122 18 -318 -2 -152 -16 -158 -16 -190 3 -44 26 -106 144 -157 302 -110 340 -111 422 -10 502 71 56 205 59 340 9z m8149 -12535 l0 -325 -2580 0 -2580 0 0 325 0 325 2580 0 2580 0 0 -325z m658 -1095 l122 0 0 -320 0 -320 -3415 0 -3415 0 0 323 0 322 3293 -2 c1810 -2 3347 -3 3415 -3z m982 -1755 l0 -305 -4240 0 -4240 0 0 305 0 305 4240 0 4240 0 0 -305z"></path></g></g><g id="SvgjsG1044" fill="rgb(255,199,6)" style="transform: none;"><g style="transform: none;"><path id="SvgjsPath1043" d="M3079 16991 c-52 -8 -120 -56 -147 -105 -26 -48 -22 -177 12 -305 68 -259 152 -456 210 -493 35 -22 79 -21 338 3 132 12 139 12 180 -8 24 -11 56 -24 72 -27 88 -21 304 -123 344 -163 7 -7 22 -13 32 -13 10 0 25 -6 32 -13 13 -13 70 -48 148 -90 25 -14 54 -35 65 -47 11 -12 35 -28 53 -36 19 -8 48 -25 66 -40 36 -29 88 -66 130 -91 16 -10 59 -42 95 -70 36 -29 71 -53 78 -53 6 0 33 -18 58 -40 25 -22 50 -40 56 -40 5 0 34 -23 65 -51 31 -28 71 -57 88 -64 17 -8 47 -30 66 -50 38 -40 200 -167 256 -201 19 -11 67 -50 107 -87 85 -77 122 -107 134 -107 4 0 43 -34 86 -75 44 -41 85 -75 93 -75 7 0 51 -36 97 -79 46 -43 103 -91 126 -106 23 -14 76 -58 118 -96 41 -39 87 -77 102 -86 14 -9 60 -47 101 -84 42 -36 93 -78 114 -92 21 -15 57 -43 79 -64 l42 -37 5 -4253 5 -4253 424 0 c233 0 425 1 427 3 2 2 5 1468 6 3258 2 1790 5 3528 8 3863 l5 609 210 -205 c276 -269 473 -452 527 -491 23 -17 81 -71 128 -120 l85 -88 5 -3415 5 -3415 440 0 440 1 5 2984 c3 1641 9 2988 13 2992 10 10 721 -701 790 -789 27 -34 91 -106 143 -159 l94 -97 0 -2465 0 -2466 406 -2 c223 -2 408 0 410 3 2 4 5 616 6 1360 3 1695 11 2635 21 2646 5 4 30 -15 55 -43 52 -56 438 -501 524 -604 165 -198 306 -368 388 -470 189 -236 452 -559 560 -690 312 -377 767 -1006 942 -1301 76 -126 190 -365 221 -459 13 -41 32 -120 42 -175 39 -226 56 -298 80 -350 24 -51 36 -62 145 -134 68 -45 135 -82 156 -86 21 -3 73 -24 116 -46 101 -51 165 -67 258 -65 90 2 113 13 141 68 28 55 28 191 0 298 -56 220 -286 678 -456 912 -25 35 -50 80 -56 100 -5 21 -14 38 -19 38 -5 0 -16 16 -24 35 -8 19 -35 56 -59 82 -24 27 -48 58 -52 71 -3 13 -27 44 -52 69 -24 26 -51 63 -59 83 -8 20 -28 47 -44 59 -17 12 -30 29 -30 39 0 9 -25 48 -55 86 -30 38 -55 74 -55 80 0 7 -14 25 -30 41 -17 16 -45 52 -63 80 -31 49 -144 210 -217 310 -20 28 -72 99 -116 158 -105 144 -230 303 -243 312 -6 3 -20 24 -31 46 -12 22 -43 64 -70 94 -28 31 -50 59 -50 64 0 5 -25 40 -55 76 -30 37 -55 71 -55 75 0 4 -27 38 -60 75 -33 37 -60 73 -60 79 0 6 -27 42 -60 79 -33 38 -60 72 -60 76 0 5 -34 47 -75 94 -41 48 -75 90 -75 96 0 5 -34 47 -77 93 -42 45 -94 108 -116 138 -23 30 -71 87 -109 128 -37 40 -68 77 -68 82 0 6 -67 80 -150 166 -82 86 -150 162 -150 168 0 6 -81 97 -181 201 -100 105 -199 213 -221 240 -55 68 -111 128 -333 355 -105 107 -212 223 -239 258 -29 38 -55 62 -66 62 -11 0 -25 10 -31 23 -21 39 -54 75 -328 357 -147 151 -292 302 -321 335 -152 170 -1211 1184 -1680 1609 -96 87 -220 200 -275 250 -267 247 -866 772 -1186 1041 -78 66 -223 190 -322 275 -177 153 -213 183 -517 430 -724 589 -1328 1044 -1728 1303 -381 246 -439 282 -655 401 -291 161 -422 213 -557 220 -52 2 -116 1 -141 -3z"></path><path id="SvgjsPath1042" d="M6320 4395 l0 -355 2610 0 2610 0 0 355 0 355 -2610 0 -2610 0 0 -355z"></path><path id="SvgjsPath1041" d="M5427 2982 l3 -352 3445 -3 3445 -2 0 355 0 355 -3447 0 -3448 0 2 -353z"></path><path id="SvgjsPath1040" d="M4640 1545 l0 -335 4270 0 4270 0 0 335 0 335 -4270 0 -4270 0 0 -335z"></path></g></g></svg><style>@media (prefers-color-scheme: light) { :root { filter: none; } }
@media (prefers-color-scheme: dark) { :root { filter: none; } }
</style></svg>